<mxfile host="app.diagrams.net" modified="2024-03-29T02:57:21.312Z" agent="Mozilla/5.0 (Windows NT 10.0; Win64; x64) AppleWebKit/537.36 (KHTML, like Gecko) Chrome/123.0.0.0 Safari/537.36" etag="Sx2fDxM2nbm3KPE9cey_" version="24.2.0" type="github" pages="2">
  <diagram id="C5RBs43oDa-KdzZeNtuy" name="main">
    <mxGraphModel dx="1221" dy="725" grid="1" gridSize="10" guides="1" tooltips="1" connect="1" arrows="1" fold="1" page="1" pageScale="1" pageWidth="827" pageHeight="1169" math="0" shadow="0">
      <root>
        <mxCell id="WIyWlLk6GJQsqaUBKTNV-0" />
        <mxCell id="WIyWlLk6GJQsqaUBKTNV-1" parent="WIyWlLk6GJQsqaUBKTNV-0" />
        <mxCell id="WIyWlLk6GJQsqaUBKTNV-2" value="" style="rounded=0;html=1;jettySize=auto;orthogonalLoop=1;fontSize=11;endArrow=block;endFill=0;endSize=8;strokeWidth=1;shadow=0;labelBackgroundColor=none;edgeStyle=orthogonalEdgeStyle;" parent="WIyWlLk6GJQsqaUBKTNV-1" source="WIyWlLk6GJQsqaUBKTNV-3" edge="1">
          <mxGeometry relative="1" as="geometry">
            <mxPoint x="220" y="170" as="targetPoint" />
          </mxGeometry>
        </mxCell>
        <mxCell id="WIyWlLk6GJQsqaUBKTNV-3" value="开始" style="rounded=1;whiteSpace=wrap;html=1;fontSize=12;glass=0;strokeWidth=1;shadow=0;" parent="WIyWlLk6GJQsqaUBKTNV-1" vertex="1">
          <mxGeometry x="160" y="80" width="120" height="40" as="geometry" />
        </mxCell>
        <mxCell id="85Xl91vVYR1fmQ_364Ub-2" value="" style="edgeStyle=orthogonalEdgeStyle;rounded=0;orthogonalLoop=1;jettySize=auto;html=1;" edge="1" parent="WIyWlLk6GJQsqaUBKTNV-1" source="85Xl91vVYR1fmQ_364Ub-0">
          <mxGeometry relative="1" as="geometry">
            <mxPoint x="220" y="270" as="targetPoint" />
          </mxGeometry>
        </mxCell>
        <mxCell id="85Xl91vVYR1fmQ_364Ub-0" value="读取外部输入参数" style="rounded=1;whiteSpace=wrap;html=1;fontSize=12;glass=0;strokeWidth=1;shadow=0;" vertex="1" parent="WIyWlLk6GJQsqaUBKTNV-1">
          <mxGeometry x="160" y="170" width="120" height="40" as="geometry" />
        </mxCell>
        <mxCell id="85Xl91vVYR1fmQ_364Ub-5" value="" style="edgeStyle=orthogonalEdgeStyle;rounded=0;orthogonalLoop=1;jettySize=auto;html=1;" edge="1" parent="WIyWlLk6GJQsqaUBKTNV-1" source="85Xl91vVYR1fmQ_364Ub-3" target="85Xl91vVYR1fmQ_364Ub-4">
          <mxGeometry relative="1" as="geometry" />
        </mxCell>
        <mxCell id="85Xl91vVYR1fmQ_364Ub-3" value="&lt;font style=&quot;font-size: 9px;&quot;&gt;&lt;span style=&quot;background-color: initial; white-space: pre; font-family: Menlo, Monaco, Consolas, &amp;quot;Courier New&amp;quot;, monospace; text-align: start;&quot;&gt;Tao_Berg时间特性矩阵是否为空&lt;/span&gt;&lt;/font&gt;" style="rhombus;whiteSpace=wrap;html=1;" vertex="1" parent="WIyWlLk6GJQsqaUBKTNV-1">
          <mxGeometry x="180" y="270" width="80" height="80" as="geometry" />
        </mxCell>
        <mxCell id="85Xl91vVYR1fmQ_364Ub-7" value="" style="edgeStyle=orthogonalEdgeStyle;rounded=0;orthogonalLoop=1;jettySize=auto;html=1;" edge="1" parent="WIyWlLk6GJQsqaUBKTNV-1" source="85Xl91vVYR1fmQ_364Ub-4" target="85Xl91vVYR1fmQ_364Ub-6">
          <mxGeometry relative="1" as="geometry" />
        </mxCell>
        <mxCell id="85Xl91vVYR1fmQ_364Ub-4" value="&lt;div style=&quot;padding: 30px; font-size: medium; text-align: start;&quot; class=&quot;rtcContent&quot;&gt;&lt;div style=&quot;font-size: 10pt; font-family: Menlo, Monaco, Consolas, &amp;quot;Courier New&amp;quot;, monospace;&quot; class=&quot;lineNode&quot;&gt;&lt;span style=&quot;white-space: pre;&quot;&gt;h步时是否大于&lt;/span&gt;&lt;span style=&quot;white-space: pre; font-size: 10pt; background-color: initial;&quot;&gt;h_oppo步时&lt;/span&gt;&lt;/div&gt;&lt;/div&gt;" style="rhombus;whiteSpace=wrap;html=1;" vertex="1" parent="WIyWlLk6GJQsqaUBKTNV-1">
          <mxGeometry x="180" y="380" width="80" height="80" as="geometry" />
        </mxCell>
        <mxCell id="85Xl91vVYR1fmQ_364Ub-6" value="&lt;span style=&quot;color: rgb(13, 13, 13); font-family: &amp;quot;Söhne Mono&amp;quot;, Monaco, &amp;quot;Andale Mono&amp;quot;, &amp;quot;Ubuntu Mono&amp;quot;, monospace; font-size: 14px; font-weight: 600; text-align: start; white-space-collapse: preserve; background-color: rgb(255, 255, 255);&quot;&gt;Fast_Bergeron_Input_Process_Realtime&lt;/span&gt;" style="shape=process;whiteSpace=wrap;html=1;backgroundOutline=1;" vertex="1" parent="WIyWlLk6GJQsqaUBKTNV-1">
          <mxGeometry x="140" y="510" width="160" height="60" as="geometry" />
        </mxCell>
      </root>
    </mxGraphModel>
  </diagram>
  <diagram id="oub00OpcP_BKgLCH8Bu-" name="Fast_Bergeron_Input_Process_Realtime">
    <mxGraphModel dx="1221" dy="725" grid="1" gridSize="10" guides="1" tooltips="1" connect="1" arrows="1" fold="1" page="1" pageScale="1" pageWidth="827" pageHeight="1169" math="0" shadow="0">
      <root>
        <mxCell id="0" />
        <mxCell id="1" parent="0" />
      </root>
    </mxGraphModel>
  </diagram>
</mxfile>
